<?xml version="1.0" standalone="yes"?>

<svg version="1.1" viewBox="0.0 0.0 191.70341207349082 138.66404199475065" fill="none" stroke="none" stroke-linecap="square" stroke-miterlimit="10" xmlns="http://www.w3.org/2000/svg" xmlns:xlink="http://www.w3.org/1999/xlink"><clipPath id="p.0"><path d="m0 0l191.70341 0l0 138.66405l-191.70341 0l0 -138.66405z" clip-rule="nonzero"></path></clipPath><g clip-path="url(#p.0)"><path fill="#000000" fill-opacity="0.0" d="m0 0l191.70341 0l0 138.66405l-191.70341 0z" fill-rule="evenodd"></path><path fill="#000000" fill-opacity="0.0" d="m101.83071 -15.250656l80.283455 0l0 150.74016l-80.283455 0z" fill-rule="evenodd"></path><path fill="#000000" d="m170.40883 45.1631l-23.875 0l0 -7.328125q0 -5.125 -0.921875 -6.53125q-0.90625 -1.40625 -3.046875 -1.40625q-2.3125 0 -3.515625 1.890625q-1.1875 1.890625 -1.1875 5.75q0 4.9375 1.34375 7.4375q1.28125 2.5 7.265625 6.046875q17.15625 10.1875 21.609375 16.71875q4.453125 6.53125 4.453125 21.0625q0 10.5625 -2.46875 15.5625q-2.46875 5.0 -9.546875 8.390625q-7.078125 3.390625 -16.484375 3.390625q-10.3125 0 -17.609367 -3.90625q-7.296875 -3.90625 -9.5625 -9.953125q-2.25 -6.046875 -2.25 -17.15625l0 -6.46875l23.874992 0l0 12.03125q0 5.546875 1.0 7.140625q1.0 1.578125 3.578125 1.578125q2.5625 0 3.8125 -2.0q1.25 -2.015625 1.25 -5.984375q0 -8.734375 -2.390625 -11.421875q-2.4375 -2.6875 -12.015625 -8.96875q-9.578117 -6.34375 -12.703117 -9.203125q-3.109375 -2.875 -5.15625 -7.9375q-2.046875 -5.078125 -2.046875 -12.953125q0 -11.34375 2.90625 -16.59375q2.90625 -5.25 9.375 -8.203125q6.4687424 -2.96875 15.624992 -2.96875q10.0 0 17.046875 3.234375q7.0625 3.234375 9.34375 8.15625q2.296875 4.90625 2.296875 16.6875l0 3.90625z" fill-rule="nonzero"></path><path fill="#000000" fill-opacity="0.0" d="m9.586615 -18.127296l87.9685 0l0 135.77953l-87.9685 0z" fill-rule="evenodd"></path><path fill="#000000" d="m82.58662 12.565208l0 101.1875l-23.062504 0l-13.6875 -46.0l0 46.0l-21.999998 0l0 -101.1875l21.999998 0l14.75 45.5625l0 -45.5625l22.000004 0z" fill-rule="nonzero"></path><path fill="#000000" fill-opacity="0.0" d="m59.97769 -18.127296l73.44882 0l0 135.77953l-73.44882 0z" fill-rule="evenodd"></path><path fill="#000000" d="m127.22769 12.565208l0 20.25l-15.625 0l0 80.9375l-26.3125 0l0 -80.9375l-15.5625 0l0 -20.25l57.5 0z" fill-rule="nonzero"></path><path fill="#000000" fill-opacity="0.0" d="m3.1732283 125.78871l185.35432 0" fill-rule="evenodd"></path><path stroke="#000000" stroke-width="3.0" stroke-linejoin="round" stroke-linecap="butt" d="m3.1732283 125.78871l185.35432 0" fill-rule="evenodd"></path><path fill="#000000" d="m123.18241 13.9042l17.921257 0l0 11.118111l-17.921257 0z" fill-rule="evenodd"></path><path stroke="#000000" stroke-width="1.0" stroke-linejoin="round" stroke-linecap="butt" d="m123.18241 13.9042l17.921257 0l0 11.118111l-17.921257 0z" fill-rule="evenodd"></path></g></svg>

